<svg xmlns="http://www.w3.org/2000/svg" width="1100" height="620" viewBox="0 0 1100 620" role="img" aria-label="Pomodoro architecture diagram"><defs><style>.t{font:600 18px -apple-system,BlinkMacSystemFont,"Segoe UI",sans-serif;fill:#f5f5f5}.s{font:14px -apple-system,BlinkMacSystemFont,"Segoe UI",sans-serif;fill:#b8bec8}.box{fill:#15181d;stroke:#3b414b;stroke-width:2}.line{stroke:#8b929d;stroke-width:2;fill:none;marker-end:url(#a)}</style><marker id="a" markerWidth="10" markerHeight="10" refX="8" refY="3" orient="auto"><path d="M0,0 L0,6 L9,3 z" fill="#8b929d"/></marker></defs><rect width="1100" height="620" fill="#0d0f12"/><text x="550" y="48" text-anchor="middle" class="t" font-size="25">Pomodoro — Application Architecture</text><rect class="box" x="390" y="85" width="320" height="85" rx="18"/><text x="550" y="120" text-anchor="middle" class="t">SwiftUI Views</text><text x="550" y="146" text-anchor="middle" class="s">Timer • Stats • Settings</text><path class="line" d="M550 170 L550 225"/><rect class="box" x="330" y="225" width="440" height="95" rx="18"/><text x="550" y="263" text-anchor="middle" class="t">PomodoroTimerEngine</text><text x="550" y="289" text-anchor="middle" class="s">State • countdown • transitions • feedback</text><path class="line" d="M440 320 L260 390"/><path class="line" d="M550 320 L550 390"/><path class="line" d="M660 320 L840 390"/><rect class="box" x="80" y="390" width="300" height="105" rx="18"/><text x="230" y="428" text-anchor="middle" class="t">SwiftData</text><text x="230" y="454" text-anchor="middle" class="s">SessionRecord persistence</text><text x="230" y="477" text-anchor="middle" class="s">Completed-session history</text><rect class="box" x="400" y="390" width="300" height="105" rx="18"/><text x="550" y="428" text-anchor="middle" class="t">iOS System Services</text><text x="550" y="454" text-anchor="middle" class="s">Notifications • Haptics • Audio</text><text x="550" y="477" text-anchor="middle" class="s">Background-safe timing</text><rect class="box" x="720" y="390" width="300" height="105" rx="18"/><text x="870" y="428" text-anchor="middle" class="t">ActivityKit</text><text x="870" y="454" text-anchor="middle" class="s">Live Activity • Dynamic Island</text><text x="870" y="477" text-anchor="middle" class="s">Lock Screen status</text><text x="230" y="575" text-anchor="middle" class="s">Persistent data</text><text x="550" y="575" text-anchor="middle" class="s">User feedback</text><text x="870" y="575" text-anchor="middle" class="s">At-a-glance progress</text></svg>